<svg version="1.1" viewBox="0.0 0.0 46.0 46.0" fill="none" stroke="none" stroke-linecap="square" stroke-miterlimit="10" xmlns:xlink="http://www.w3.org/1999/xlink" xmlns="http://www.w3.org/2000/svg"><clipPath id="p.0"><path d="m0 0l46.0 0l0 46.0l-46.0 0l0 -46.0z" clip-rule="nonzero"/></clipPath><g clip-path="url(#p.0)"><path fill="#000000" fill-opacity="0.0" d="m0 0l46.0 0l0 46.0l-46.0 0z" fill-rule="evenodd"/><path fill="#972d07" d="m0.007874016 0.007874016l45.984253 0l0 45.984253l-45.984253 0z" fill-rule="evenodd"/><path fill="#000000" fill-opacity="0.0" d="m-3.863517 -10.716536l46.015747 0l0 59.779526l-46.015747 0z" fill-rule="evenodd"/><path fill="#ffffff" d="m13.464608 30.92409q7.109374 2.453127 10.656249 3.328127q3.546875 0.890625 6.09375 0.890625q2.546875 0 5.609375 -1.15625l0.171875 0.265625q-4.0625 2.796875 -8.203125 2.796875q-4.21875 0 -9.625 -2.640625q-4.171874 -2.0625 -5.171874 -2.484377q-3.5625 -1.609375 -5.8593755 -1.640625l0 -0.328125l0.4375 0q0.8593755 0 1.4687505 -0.59375q0.625 -0.609375 0.65625 -1.515625l0 -18.453125q-0.03125 -0.875 -0.65625 -1.484375q-0.609375 -0.625 -1.4687505 -0.625l-0.4375 0l0 -0.328125l7.2968755 0l0 0.328125l-0.4375 0q-0.859375 0 -1.5 0.625q-0.625 0.609375 -0.625 1.484375l0 19.21875q0 0.609375 0.0625 0.921875q0.0625 0.3125 0.421875 0.71875q0.375 0.390625 1.109375 0.671875z" fill-rule="nonzero"/><path fill="#000000" fill-opacity="0.0" d="m3.7165353 1.5669291l48.566933 0l0 42.015747l-48.566933 0z" fill-rule="evenodd"/><path fill="#ffffff" d="m23.997786 16.393177q0.234375 0.15625 0.265625 0.390625q0.03125 0.234375 -0.109375 0.453125q-0.125 0.171875 -0.34375 0.1875q-0.203125 0.015625 -0.390625 -0.078125q-0.703125 -0.46875 -1.515625 -0.71875q-0.8125 -0.265625 -1.75 -0.265625q-1.125 0 -2.109375 0.40625q-0.984375 0.390625 -1.71875 1.15625q-0.71875 0.75 -1.125 1.78125q-0.390625 1.015625 -0.390625 2.25q0 1.265625 0.40625 2.3125q0.40625 1.03125 1.140625 1.78125q0.75 0.734375 1.71875 1.125q0.96875 0.390625 2.078125 0.390625q0.921875 0 1.734375 -0.25q0.8125 -0.265625 1.515625 -0.71875q0.1875 -0.109375 0.40625 -0.078125q0.21875 0.03125 0.34375 0.21875q0.171875 0.203125 0.125 0.4375q-0.046875 0.234375 -0.25 0.359375q-0.46875 0.296875 -1.109375 0.5625q-0.625 0.265625 -1.34375 0.421875q-0.703125 0.15625 -1.421875 0.15625q-1.34375 0 -2.515625 -0.484375q-1.171875 -0.484375 -2.09375 -1.375q-0.90625 -0.890625 -1.421875 -2.109375q-0.515625 -1.234375 -0.515625 -2.75q0 -1.453125 0.5 -2.671875q0.515625 -1.21875 1.40625 -2.109375q0.890625 -0.90625 2.078125 -1.40625q1.203125 -0.515625 2.5625 -0.515625q1.0625 0 2.046875 0.3125q1.0 0.296875 1.796875 0.828125zm12.182539 0q0.234375 0.15625 0.265625 0.390625q0.03125 0.234375 -0.109375 0.453125q-0.125 0.171875 -0.34375 0.1875q-0.203125 0.015625 -0.390625 -0.078125q-0.703125 -0.46875 -1.515625 -0.71875q-0.8125 -0.265625 -1.75 -0.265625q-1.1249981 0 -2.109373 0.40625q-0.984375 0.390625 -1.71875 1.15625q-0.71875 0.75 -1.125 1.78125q-0.390625 1.015625 -0.390625 2.25q0 1.265625 0.40625 2.3125q0.40625 1.03125 1.140625 1.78125q0.75 0.734375 1.71875 1.125q0.96875 0.390625 2.078123 0.390625q0.921875 0 1.734375 -0.25q0.8125 -0.265625 1.515625 -0.71875q0.1875 -0.109375 0.40625 -0.078125q0.21875 0.03125 0.34375 0.21875q0.171875 0.203125 0.125 0.4375q-0.046875 0.234375 -0.25 0.359375q-0.46875 0.296875 -1.109375 0.5625q-0.625 0.265625 -1.34375 0.421875q-0.703125 0.15625 -1.421875 0.15625q-1.3437481 0 -2.515623 -0.484375q-1.171875 -0.484375 -2.09375 -1.375q-0.90625 -0.890625 -1.421875 -2.109375q-0.515625 -1.234375 -0.515625 -2.75q0 -1.453125 0.5 -2.671875q0.515625 -1.21875 1.40625 -2.109375q0.890625 -0.90625 2.078125 -1.40625q1.203125 -0.515625 2.562498 -0.515625q1.0625 0 2.046875 0.3125q1.0 0.296875 1.796875 0.828125z" fill-rule="nonzero"/></g></svg>